<svg id="Layer_1" data-name="Layer 1" xmlns="http://www.w3.org/2000/svg" viewBox="0 0 81 81"><defs><style>.cls-1{fill:#2d4874;}.cls-2,.cls-3{fill:none;}.cls-2{stroke:#2d4874;stroke-width:2px;}.cls-3{stroke:#fff;stroke-linecap:round;stroke-linejoin:round;stroke-width:3px;}</style></defs><g id="Group_9" data-name="Group 9"><g id="Ellipse_8" data-name="Ellipse 8"><circle class="cls-1" cx="40.5" cy="40.5" r="40.5"/><circle class="cls-2" cx="40.5" cy="40.5" r="39.5"/></g><g id="Icon_feather-shopping-cart" data-name="Icon feather-shopping-cart"><path id="Path_5" data-name="Path 5" class="cls-3" d="M301,418.17a2.16,2.16,0,1,1-2.16-2.16h0A2.16,2.16,0,0,1,301,418.17Z" transform="translate(-265.68 -355.91)"/><path id="Path_6" data-name="Path 6" class="cls-3" d="M324.77,418.17a2.16,2.16,0,1,1-2.16-2.16h0A2.16,2.16,0,0,1,324.77,418.17Z" transform="translate(-265.68 -355.91)"/><path id="Path_7" data-name="Path 7" class="cls-3" d="M281.53,374.93h8.65L296,403.88a4.32,4.32,0,0,0,4.33,3.48h21a4.32,4.32,0,0,0,4.33-3.48l3.46-18.14H292.34" transform="translate(-265.68 -355.91)"/></g></g></svg>