<svg id="Layer_1" data-name="Layer 1" xmlns="http://www.w3.org/2000/svg" xmlns:xlink="http://www.w3.org/1999/xlink" viewBox="0 0 838.21 1107.11"><defs><style>.cls-1,.cls-2,.cls-3,.cls-4{fill:none;}.cls-1{stroke:#f7a8b1;stroke-miterlimit:10;opacity:0.7;}.cls-1,.cls-2{stroke-width:7px;}.cls-2,.cls-4{stroke:#2d4874;}.cls-4{stroke-width:4px;}</style></defs><path id="Path_33" data-name="Path 33" class="cls-1" d="M1440.22,1.34c239.28,45.18,154.34,307.77,154.34,307.77s-243,655.91,17.73,299S1888.55,458,1888.55,458,1900,715.28,1934.31,766.1" transform="translate(-1099 2.45)"/><path id="Path_32" data-name="Path 32" class="cls-2" d="M1156.87,1c374.23,65.07,241.39,443.33,241.39,443.33S1018.18,1389.13,1426,875s432.08-216.25,432.08-216.25,17.91,370.65,71.56,443.85" transform="translate(-1099 2.45)"/><g id="Ellipse_12" data-name="Ellipse 12"><circle class="cls-3" cx="395.34" cy="553.6" r="289.14"/><circle class="cls-4" cx="395.34" cy="553.6" r="287.82"/></g><g id="Ellipse_12-2" data-name="Ellipse 12"><circle class="cls-3" cx="395.53" cy="553.84" r="192.76"/><circle class="cls-4" cx="395.53" cy="553.84" r="191.88"/></g><g id="Ellipse_12-3" data-name="Ellipse 12"><circle class="cls-3" cx="193.66" cy="351.55" r="80.32"/><circle class="cls-4" cx="193.66" cy="351.55" r="79.95"/></g><g id="Ellipse_12-4" data-name="Ellipse 12"><circle class="cls-3" cx="107.57" cy="553.3" r="80.32"/><circle class="cls-4" cx="107.57" cy="553.3" r="79.95"/></g><g id="Ellipse_12-5" data-name="Ellipse 12"><circle class="cls-3" cx="193.66" cy="756.34" r="80.32"/><circle class="cls-4" cx="193.66" cy="756.34" r="79.95"/></g><image width="1802" height="1604" transform="translate(168 339.45) scale(0.27)" xlink:href="Screen%20Shot%202021-06-07%20at%2012.44.55%20am.png"/><image width="1568" height="1368" transform="translate(80 251.45) scale(0.15)" xlink:href="Screen%20Shot%202021-06-07%20at%2012.45.18%20am.png"/><image width="1612" height="1398" transform="translate(0 456.45) scale(0.14)" xlink:href="Screen%20Shot%202021-06-07%20at%2012.45.31%20am.png"/><image width="1250" height="1122" transform="translate(76 661.45) scale(0.19)" xlink:href="Screen%20Shot%202021-06-07%20at%2012.33.55%20pm.png"/></svg>