<svg id="Layer_1" data-name="Layer 1" xmlns="http://www.w3.org/2000/svg" viewBox="0 0 364.56 129"><defs><style>.cls-1{fill:none;}.cls-2{fill:#fcfcfc;}.cls-3,.cls-4{isolation:isolate;}.cls-4{font-size:44px;fill:#fff;font-family:CodaCaption-ExtraBold, Coda Caption;font-weight:800;}</style></defs><g id="Polygon_4" data-name="Polygon 4"><path class="cls-1" d="M895.15,624.4l-71,31v-62Z" transform="translate(-824.15 -593.4)"/><path class="cls-2" d="M880.16,624.4l-50-21.84v43.67l50-21.83m15,0-71,31v-62Z" transform="translate(-824.15 -593.4)"/></g><g id="Polygon_5" data-name="Polygon 5"><path class="cls-1" d="M895.15,691.4l-71,31v-62Z" transform="translate(-824.15 -593.4)"/><path class="cls-2" d="M880.16,691.4l-50-21.84v43.67l50-21.83m15,0-71,31v-62Z" transform="translate(-824.15 -593.4)"/></g><g id="Polygon_6" data-name="Polygon 6"><path class="cls-2" d="M887.65,636.17v42.45L840.37,657.4Z" transform="translate(-824.15 -593.4)"/><path class="cls-2" d="M841.6,657.4l45.55,20.45V636.94L841.6,657.4m-2.45,0,49-22v44Z" transform="translate(-824.15 -593.4)"/></g><g id="ERTRONICS" class="cls-3"><text class="cls-4" transform="translate(76.5 80)">ERTRONICS</text></g></svg>