<svg xmlns="http://www.w3.org/2000/svg" width="82.124" height="49.274" viewBox="0 0 82.124 49.274">
  <path id="Icon_payment-mastercard" data-name="Icon payment-mastercard" d="M62.628,16.35A24.54,24.54,0,0,0,46.2,22.628a24.637,24.637,0,1,0,0,36.717,24.635,24.635,0,1,0,16.425-43ZM15.306,46.882l1.423-8.944-3.252,8.944H11.647V37.938l-1.626,8.944H7.582l2.033-11.79h3.659V42.41l2.643-7.318H19.78l-2.033,11.79H15.306Zm11.383-2.439a13.342,13.342,0,0,1-.407,1.829v.61H24.249V45.865a2.943,2.943,0,0,1-2.642,1.22,2.19,2.19,0,0,1-1.626-.61,3.287,3.287,0,0,1-.61-2.033A3.178,3.178,0,0,1,20.387,41.8a5.785,5.785,0,0,1,3.456-1.016h1.016v-.609c0-.54-.543-.813-1.626-.813a11.408,11.408,0,0,0-2.643.407c.132-.54.27-1.22.407-2.033a8.27,8.27,0,0,1,2.846-.61q3.455,0,3.456,2.846a9.674,9.674,0,0,1-.2,1.829q-.192,1.323-.407,2.643Zm7.318-4.879a6.254,6.254,0,0,0-1.829-.2c-.813,0-1.22.273-1.22.813a.82.82,0,0,0,.2.61l.813.407A3.007,3.007,0,0,1,33.8,43.834q0,3.254-3.862,3.252a12.052,12.052,0,0,1-2.642-.2c.132-.54.27-1.287.407-2.236a11.05,11.05,0,0,0,2.236.407c.945,0,1.423-.27,1.423-.813a.846.846,0,0,0-.2-.61,2.591,2.591,0,0,0-1.016-.61,2.735,2.735,0,0,1-1.829-2.642q0-3.249,3.659-3.252a9.418,9.418,0,0,1,2.439.2l-.408,2.234Zm5.285.2H37.869a7.7,7.7,0,0,1-.2,1.829,6.336,6.336,0,0,1-.1.813,1.6,1.6,0,0,1-.3.813v.813a.718.718,0,0,0,.813.813,1.81,1.81,0,0,0,.813-.2l-.407,2.236a6.147,6.147,0,0,1-1.829.2,1.8,1.8,0,0,1-2.033-2.033,9.553,9.553,0,0,1,.406-2.643L36.039,35.9h2.439l-.2,1.423H39.5l-.2,2.441Zm7.927,3.253H42.137a1.96,1.96,0,0,0,.407,1.423,2.481,2.481,0,0,0,1.829.61,5.377,5.377,0,0,0,2.642-.813l-.406,2.439a7.191,7.191,0,0,1-2.643.406q-4.269,0-4.269-4.269a6.07,6.07,0,0,1,1.22-4.065,3.681,3.681,0,0,1,3.049-1.626,3.585,3.585,0,0,1,2.643,1.016,3.328,3.328,0,0,1,.813,2.439,12.817,12.817,0,0,1-.2,2.44Zm4.066-1.83a39.886,39.886,0,0,0-1.016,5.692H47.626l.2-.61q.809-5.688,1.22-8.944h2.439l-.2,1.423a2.6,2.6,0,0,1,1.22-1.22.885.885,0,0,1,1.22-.2,15.166,15.166,0,0,0-1.016,2.846c-.544-.133-1.018.2-1.424,1.016Zm9.147,5.489a5.055,5.055,0,0,1-2.236.406,4.066,4.066,0,0,1-3.252-1.423A4.97,4.97,0,0,1,53.724,42,7.863,7.863,0,0,1,55.35,36.92a4.664,4.664,0,0,1,4.065-2.033,9.743,9.743,0,0,1,2.846.61l-.407,2.439a5.069,5.069,0,0,0-2.236-.61,2.727,2.727,0,0,0-2.439,1.22,5.21,5.21,0,0,0-.813,3.252,2.8,2.8,0,0,0,.61,2.033,1.926,1.926,0,0,0,1.626.813,5.056,5.056,0,0,0,2.236-.61l-.406,2.644Zm9.046-5.9a6.043,6.043,0,0,0-.1,1.016c-.136.68-.274,1.594-.407,2.745a14.192,14.192,0,0,1-.407,2.338H66.53V45.865a2.944,2.944,0,0,1-2.643,1.22,2.19,2.19,0,0,1-1.626-.61,3.287,3.287,0,0,1-.61-2.033A3.178,3.178,0,0,1,62.667,41.8a5.451,5.451,0,0,1,3.252-1.016h1.016a.835.835,0,0,0,.2-.61c0-.54-.543-.813-1.626-.813a11.407,11.407,0,0,0-2.643.407,6.583,6.583,0,0,1,.407-2.033,8.27,8.27,0,0,1,2.846-.61q3.455,0,3.456,2.846a5.9,5.9,0,0,1-.1.814Zm3.964.406a41.067,41.067,0,0,0-1.016,5.692H69.783l.2-.61q.8-4.443,1.22-8.944h2.439a4.6,4.6,0,0,1-.2,1.423,2.6,2.6,0,0,1,1.22-1.22,1.454,1.454,0,0,1,1.22-.2,5.417,5.417,0,0,0-1.016,2.846c-.544-.133-1.017.2-1.424,1.016Zm6.911,5.692.2-.813a2.706,2.706,0,0,1-2.236,1.016,2.381,2.381,0,0,1-2.236-1.016,4.846,4.846,0,0,1-1.016-2.846,6.256,6.256,0,0,1,1.423-4.269,3.187,3.187,0,0,1,2.846-1.626,3.514,3.514,0,0,1,2.439,1.22l.407-3.456h2.643l-2.033,11.79h-2.44ZM21.811,44.036c0,.68.27,1.016.813,1.016a1.376,1.376,0,0,0,1.22-.61,2.486,2.486,0,0,0,.61-1.829h-.611c-1.356,0-2.032.477-2.032,1.423Zm22.97-4.472a.575.575,0,0,1-.406-.2h-.407q-1.22,0-1.626,1.626h2.846v-.61l-.2-.407a.612.612,0,0,0-.2-.406Zm19.311,4.472c0,.68.27,1.016.813,1.016a1.376,1.376,0,0,0,1.22-.61,2.482,2.482,0,0,0,.61-1.829h-.61c-1.356,0-2.033.477-2.033,1.423Zm15.652-4.472a1.715,1.715,0,0,0-1.423,1.016,4.308,4.308,0,0,0-.406,2.236q0,1.83,1.22,1.829a1.761,1.761,0,0,0,1.423-.813,4.031,4.031,0,0,0,.61-2.439c0-1.219-.479-1.829-1.424-1.829Z" transform="translate(-5.141 -16.35)" fill="#2d4874"/>
</svg>
