<svg xmlns="http://www.w3.org/2000/svg" width="69.521" height="46.347" viewBox="0 0 69.521 46.347">
  <path id="Icon_metro-cc-paypal" data-name="Icon metro-cc-paypal" d="M12.287,31.984h-.453q-.573,0-.573-.543a9.093,9.093,0,0,1,.573-2.565.911.911,0,0,1,.453-.588,2.111,2.111,0,0,1,.845-.136q2.323,0,2.323,1.479a1.941,1.941,0,0,1-.92,1.8,4.259,4.259,0,0,1-2.248.558Zm10.32,4.858q-1.418,0-1.418-.875,0-1.871,3.711-1.871l.091.091Q24.839,36.842,22.606,36.842Zm23.355-4.8h-.453a.507.507,0,0,1-.573-.573,9.093,9.093,0,0,1,.573-2.565.867.867,0,0,1,.438-.573,2.331,2.331,0,0,1,.86-.121q2.323,0,2.323,1.479a1.941,1.941,0,0,1-.92,1.8,4.259,4.259,0,0,1-2.248.558Zm10.32,4.828q-1.418,0-1.418-.905,0-1.871,3.711-1.871l.091.091q-.151,2.685-2.384,2.685ZM13.825,25.8H9.963a.818.818,0,0,0-.438.121.735.735,0,0,0-.256.226q-.06.106-.211.377-.091.211-1.358,5.733T6.433,38.049a.52.52,0,0,0,.166.377.554.554,0,0,0,.407.166H8.877q.754,0,.981-1.041l.453-2.082.981-1.041a14.508,14.508,0,0,0,2.64-.226,11.6,11.6,0,0,0,2.429-.739,4.228,4.228,0,0,0,1.916-1.584,4.513,4.513,0,0,0,.709-2.55,3.613,3.613,0,0,0-.438-1.841,2.585,2.585,0,0,0-1.237-1.1,6.4,6.4,0,0,0-1.614-.468,12.887,12.887,0,0,0-1.871-.121Zm10.44,2.9a13.561,13.561,0,0,0-2.233.181,2.2,2.2,0,0,0-.256.03q-.2.03-.272.045L21.278,29l-.226.06-.2.091-.2.121-.151.151-.136.211-.121.272a5.04,5.04,0,0,0-.272,1.177q0,.3.272.3a3,3,0,0,0,.649-.151q.5-.151.588-.181a6.784,6.784,0,0,1,1.75-.241q2.233,0,2.233,1.086a.4.4,0,0,1-.3.422,3.812,3.812,0,0,1-.543.091q-.3.03-.649.045a4.706,4.706,0,0,0-.528.045,17.093,17.093,0,0,0-1.946.3,9.06,9.06,0,0,0-1.7.588,2.989,2.989,0,0,0-1.373,1.177,3.568,3.568,0,0,0-.468,1.886,2.2,2.2,0,0,0,.785,1.8,2.93,2.93,0,0,0,1.931.649,4.72,4.72,0,0,0,1.373-.2,5.1,5.1,0,0,0,1-.392q.347-.2,1.162-.709a1.137,1.137,0,0,0-.091.453.554.554,0,0,0,.166.407.52.52,0,0,0,.377.166h1.69a.927.927,0,0,1,.211-.106,1.753,1.753,0,0,0,.226-.106q.045-.03.151-.106a.464.464,0,0,0,.151-.166.981.981,0,0,0,.075-.241l1.358-5.854a3.082,3.082,0,0,0,.121-.905q0-2.444-4.375-2.444Zm15.932.151H37.965a1.46,1.46,0,0,0-1.177.694q-.151.211-.89,1.539t-1.4,2.459A4.827,4.827,0,0,1,33.71,34.7l-.151-.121a17.314,17.314,0,0,0-.815-5.009.657.657,0,0,0-.106-.256,1.1,1.1,0,0,0-.181-.2,2.077,2.077,0,0,0-.2-.151.688.688,0,0,0-.256-.091l-.256-.045q-.091-.015-.287-.03t-.272-.015h-.558q-1.147,0-1.147.634l.03.151q.151,1.6.754,4.556t.754,4.315a6.4,6.4,0,0,1,.06.724,4.016,4.016,0,0,1-.92,1.856,4.144,4.144,0,0,0-.92,1.765q0,.392,1.207.392,1.841,0,2.293-.754L40.137,29.9a2.5,2.5,0,0,0,.3-.785q0-.272-.241-.272Zm7.3-2.987H43.607q-.543,0-.875.694-.181.392-1.4,5.778t-1.222,5.748q0,.6,1.3.6h.769l.287-.03.256-.06.256-.091.2-.136.166-.181.091-.256.634-2.746a.874.874,0,0,1,.317-.513.9.9,0,0,1,.588-.211,15.519,15.519,0,0,0,2.64-.211,10.518,10.518,0,0,0,2.429-.739,4.358,4.358,0,0,0,1.916-1.584,4.44,4.44,0,0,0,.709-2.535,3.613,3.613,0,0,0-.438-1.841,2.585,2.585,0,0,0-1.237-1.1,6.4,6.4,0,0,0-1.614-.468,12.888,12.888,0,0,0-1.871-.121ZM57.94,28.7a19.353,19.353,0,0,0-2.233.181,2.917,2.917,0,0,0-1.448.483,1.788,1.788,0,0,0-.332.573,3.923,3.923,0,0,0-.241,1.177q0,.3.241.3.03,0,1.237-.362a6.784,6.784,0,0,1,1.75-.241q2.233,0,2.233,1.086a.372.372,0,0,1-.3.422q-.121.03-1.72.211a17.091,17.091,0,0,0-1.946.3,9.06,9.06,0,0,0-1.7.588A2.989,2.989,0,0,0,52.1,34.594a3.568,3.568,0,0,0-.468,1.886,2.169,2.169,0,0,0,.785,1.765,2.93,2.93,0,0,0,1.931.649,4.922,4.922,0,0,0,1.358-.181,5.239,5.239,0,0,0,1.026-.392q.392-.211,1.147-.724-.091.453-.091.483a.509.509,0,0,0,.06.256.406.406,0,0,0,.2.166l.241.106a1.035,1.035,0,0,0,.317.06q.211.015.287.015h.528q1.267,0,1.448-.754l1.358-5.854a4.759,4.759,0,0,0,.091-.935q0-2.444-4.375-2.444Zm9.716-2.746H66q-.754,0-1,1.207-.3,1.328-1.1,5.039t-1.282,5.733v.151a.492.492,0,0,0,.483.543h1.75a.9.9,0,0,0,.558-.2.811.811,0,0,0,.317-.5l2.5-11.285H68.2l.03-.151a.52.52,0,0,0-.166-.377A.554.554,0,0,0,67.656,25.949Zm4.436-11.8V52.774a3.916,3.916,0,0,1-3.862,3.862H6.433A3.712,3.712,0,0,1,3.717,55.49a3.711,3.711,0,0,1-1.147-2.716V14.151a3.712,3.712,0,0,1,1.147-2.716,3.711,3.711,0,0,1,2.716-1.147h61.8a3.916,3.916,0,0,1,3.862,3.862Z" transform="translate(-2.571 -10.289)" fill="#2d4874"/>
</svg>
