<svg xmlns="http://www.w3.org/2000/svg" width="55.52" height="17.017" viewBox="0 0 55.52 17.017">
  <path id="Icon_simple-visa" data-name="Icon simple-visa" d="M40.356,13.179a11.546,11.546,0,0,0-4.025-.7c-4.442,0-7.576,2.239-7.6,5.448-.028,2.36,2.23,3.687,3.935,4.479,1.751.81,2.336,1.319,2.332,2.047-.012,1.1-1.4,1.6-2.688,1.6a9.509,9.509,0,0,1-4.236-.868l-.553-.257-.627,3.7a15.033,15.033,0,0,0,5.032.868c4.722,0,7.808-2.223,7.845-5.642.037-1.881-1.18-3.308-3.75-4.483-1.559-.763-2.531-1.275-2.531-2.05,0-.685.83-1.416,2.566-1.416a8.236,8.236,0,0,1,3.366.632l.416.187.627-3.572-.109.023Zm11.527-.393h-3.47a2.245,2.245,0,0,0-2.362,1.367L39.378,29.269H44.1l.944-2.475,5.76,0c.141.578.555,2.471.555,2.471H55.52L51.884,12.786Zm-29.537-.139h4.495L24.031,29.139h-4.5l2.813-16.5ZM10.921,21.736l.467,2.29,4.4-11.241h4.763L13.468,29.246H8.717L4.83,15.305a.921.921,0,0,0-.416-.548A19,19,0,0,0,0,13.121l.058-.347H7.3a1.882,1.882,0,0,1,2.043,1.4l1.578,7.572v-.007Zm35.413,1.682,1.793-4.613c-.023.046.37-.953.6-1.573l.308,1.423,1.039,4.759H46.334v0Z" transform="translate(0 -12.483)" fill="#2d4874"/>
</svg>
